{
	"asset":{
		"generator":"Khronos glTF Blender I/O v4.1.62",
		"version":"2.0"
	},
	"scene":0,
	"scenes":[
		{
			"name":"Scene",
			"nodes":[
				32
			]
		}
	],
	"nodes":[
		{
			"name":"leg_front_left_bot2_end",
			"rotation":[
				-3.1789124932402046e-07,
				1.2720082054329396e-07,
				7.947352287374088e-08,
				1
			],
			"translation":[
				1.4735337572346907e-07,
				3.000000476837158,
				9.294039955420885e-07
			]
		},
		{
			"children":[
				0
			],
			"name":"leg_front_left_bot2",
			"rotation":[
				0.009346948936581612,
				-0.7070448994636536,
				-0.7070446610450745,
				0.00937931053340435
			],
			"scale":[
				0.9999999403953552,
				0.9999997615814209,
				0.9999998807907104
			],
			"translation":[
				2.157175913453102e-07,
				15.105298042297363,
				-5.404945113696158e-08
			]
		},
		{
			"children":[
				1
			],
			"name":"leg_front_left_bot1",
			"rotation":[
				-0.0018704899121075869,
				0.14126887917518616,
				0.025242581963539124,
				0.9896476864814758
			],
			"scale":[
				0.9999998211860657,
				1,
				0.9999999403953552
			],
			"translation":[
				-2.980232238769531e-07,
				4.613569259643555,
				-4.544854164123535e-07
			]
		},
		{
			"children":[
				2
			],
			"name":"leg_front_left_bot0",
			"rotation":[
				-0.02548384666442871,
				0.9852162003517151,
				0.08894877135753632,
				0.14417977631092072
			],
			"scale":[
				1,
				0.9999999403953552,
				0.9999999403953552
			],
			"translation":[
				-3.3736728255462367e-07,
				11.166507720947266,
				1.3064959603070747e-07
			]
		},
		{
			"children":[
				3
			],
			"name":"leg_front_left_top1",
			"rotation":[
				-0.3065972626209259,
				-0.9418651461601257,
				-0.08503499627113342,
				0.1079685315489769
			],
			"scale":[
				1,
				0.9999998211860657,
				0.9999999403953552
			],
			"translation":[
				7.152557373046875e-07,
				8.888670921325684,
				4.470348358154297e-07
			]
		},
		{
			"children":[
				4
			],
			"name":"leg_front_left_top0",
			"rotation":[
				-0.3046686351299286,
				-0.6679342985153198,
				-0.6709951162338257,
				0.10395388305187225
			],
			"scale":[
				0.9999999403953552,
				0.9999999403953552,
				0.9999999403953552
			],
			"translation":[
				0.15018539130687714,
				10.111336708068848,
				1.429425597190857
			]
		},
		{
			"name":"head0_end",
			"rotation":[
				1.862645326866641e-08,
				9.685754065458241e-08,
				-3.725290298461914e-08,
				1
			],
			"scale":[
				1.0000001192092896,
				0.9999999403953552,
				1
			],
			"translation":[
				1.341104507446289e-06,
				19.825271606445312,
				0
			]
		},
		{
			"children":[
				6
			],
			"name":"head0",
			"rotation":[
				0.43723636865615845,
				-0.21291863918304443,
				-0.23765799403190613,
				0.8408381342887878
			],
			"translation":[
				2.9802322387695312e-08,
				11.768172264099121,
				-8.540228009223938e-07
			]
		},
		{
			"children":[
				7
			],
			"name":"neck0",
			"rotation":[
				-0.08235692977905273,
				0.007445518393069506,
				0.006288342643529177,
				0.9965552091598511
			],
			"scale":[
				1,
				0.9999999403953552,
				0.9999999403953552
			],
			"translation":[
				-5.955277515568014e-08,
				17.99747085571289,
				2.8852302875748137e-06
			]
		},
		{
			"name":"leg_front_right_bot2_end",
			"rotation":[
				3.178911924806016e-07,
				1.96141911601444e-07,
				2.3841852225814364e-07,
				1
			],
			"translation":[
				-3.214745447621681e-07,
				3.000002145767212,
				1.6262089275187463e-06
			]
		},
		{
			"children":[
				9
			],
			"name":"leg_front_right_bot2",
			"rotation":[
				0.009349433705210686,
				0.7070444226264954,
				0.7070451378822327,
				0.009377197362482548
			],
			"scale":[
				0.9999999403953552,
				0.9999997615814209,
				0.9999999403953552
			],
			"translation":[
				-8.483766578137875e-08,
				15.105307579040527,
				-1.0014809959102422e-06
			]
		},
		{
			"children":[
				10
			],
			"name":"leg_front_right_bot1",
			"rotation":[
				-0.001870637875981629,
				-0.1412741094827652,
				-0.02524282969534397,
				0.989646852016449
			],
			"scale":[
				1,
				1.0000001192092896,
				1.0000001192092896
			],
			"translation":[
				-1.7881393432617188e-07,
				4.613566875457764,
				-1.6391277313232422e-07
			]
		},
		{
			"children":[
				11
			],
			"name":"leg_front_right_bot0",
			"rotation":[
				-0.025483788922429085,
				-0.9852161407470703,
				-0.08894873410463333,
				0.14418022334575653
			],
			"scale":[
				0.9999999403953552,
				0.9999998211860657,
				1
			],
			"translation":[
				-1.0753044534794753e-06,
				11.166502952575684,
				4.0891245589591563e-07
			]
		},
		{
			"children":[
				12
			],
			"name":"leg_front_right_top1",
			"rotation":[
				-0.30659744143486023,
				0.9418652653694153,
				0.08503457903862,
				0.10796741396188736
			],
			"scale":[
				1.0000001192092896,
				1,
				1
			],
			"translation":[
				3.5762786865234375e-07,
				8.888667106628418,
				-7.152557373046875e-07
			]
		},
		{
			"children":[
				13
			],
			"name":"leg_front_right_top0",
			"rotation":[
				-0.30466872453689575,
				0.6705906987190247,
				0.6651818752288818,
				0.12254892289638519
			],
			"scale":[
				0.9999999403953552,
				1.0000001192092896,
				0.9999999403953552
			],
			"translation":[
				-0.40889114141464233,
				10.119105339050293,
				1.4216454029083252
			]
		},
		{
			"children":[
				5,
				8,
				14
			],
			"name":"body_top1",
			"rotation":[
				-0.02003650553524494,
				-0.010427596047520638,
				-0.010687642730772495,
				0.9996877312660217
			],
			"translation":[
				-7.450580596923828e-09,
				10.21519660949707,
				-4.1909515857696533e-07
			]
		},
		{
			"children":[
				15
			],
			"name":"body_top0",
			"rotation":[
				-0.011761151254177094,
				-0.053047262132167816,
				-0.05127623304724693,
				0.9972053170204163
			],
			"scale":[
				0.9999999403953552,
				0.9999998211860657,
				0.9999998807907104
			],
			"translation":[
				5.960464477539063e-08,
				9.810831069946289,
				1.0058283805847168e-06
			]
		},
		{
			"name":"leg_hind_left_bot2_end",
			"rotation":[
				1.3032287651381508e-13,
				2.47685363774508e-07,
				1.9868174661041849e-07,
				1
			],
			"scale":[
				1,
				0.9999998807907104,
				1
			],
			"translation":[
				-1.2766759027726948e-07,
				2.9999940395355225,
				2.659736310306471e-06
			]
		},
		{
			"children":[
				17
			],
			"name":"leg_hind_left_bot2",
			"rotation":[
				0.007491044234484434,
				-0.7070672512054443,
				-0.7070667743682861,
				0.007505427114665508
			],
			"translation":[
				-7.485505193471909e-08,
				16.503713607788086,
				2.678797500266228e-06
			]
		},
		{
			"children":[
				18
			],
			"name":"leg_hind_left_bot1",
			"rotation":[
				0.002294745296239853,
				-0.2162967175245285,
				0.0658334344625473,
				0.9741029143333435
			],
			"scale":[
				1,
				1.0000001192092896,
				1.0000001192092896
			],
			"translation":[
				1.1920928955078125e-07,
				6.070416450500488,
				2.294778823852539e-06
			]
		},
		{
			"children":[
				19
			],
			"name":"leg_hind_left_bot0",
			"rotation":[
				0.10425568372011185,
				-0.9647012948989868,
				-0.1294802874326706,
				0.20424742996692657
			],
			"scale":[
				1,
				0.9999997019767761,
				0.9999998807907104
			],
			"translation":[
				-3.672469119919697e-06,
				7.584793567657471,
				2.0099832909181714e-09
			]
		},
		{
			"children":[
				20
			],
			"name":"leg_hind_left_top1",
			"rotation":[
				0.055624980479478836,
				0.5421181917190552,
				0.07276180386543274,
				0.8352960348129272
			],
			"scale":[
				1,
				0.9999998211860657,
				1.0000001192092896
			],
			"translation":[
				-1.3113021850585938e-06,
				9.397377967834473,
				-7.152557373046875e-07
			]
		},
		{
			"children":[
				21
			],
			"name":"leg_hind_left_top0",
			"rotation":[
				-0.6513074636459351,
				-0.41494128108024597,
				0.3501286804676056,
				0.5301247239112854
			],
			"scale":[
				1.0000001192092896,
				1.000000238418579,
				1.0000001192092896
			],
			"translation":[
				0.3460654616355896,
				10.395662307739258,
				-0.06600159406661987
			]
		},
		{
			"name":"leg_hind_right_bot2_end",
			"rotation":[
				5.515147393679934e-14,
				-2.610768312649725e-08,
				3.638485780027567e-12,
				1
			],
			"translation":[
				-3.24182963140629e-07,
				3.0000030994415283,
				3.6420215110410936e-07
			]
		},
		{
			"children":[
				23
			],
			"name":"leg_hind_right_bot2",
			"rotation":[
				0.007510276976972818,
				0.7070672512054443,
				0.7070667743682861,
				0.007486374117434025
			],
			"scale":[
				1,
				0.9999997615814209,
				0.9999999403953552
			],
			"translation":[
				1.3492535799741745e-07,
				16.503707885742188,
				-1.0542862582951784e-08
			]
		},
		{
			"children":[
				24
			],
			"name":"leg_hind_right_bot1",
			"rotation":[
				0.0022926696110516787,
				0.21627111732959747,
				-0.06583365797996521,
				0.9741085767745972
			],
			"scale":[
				1,
				1,
				0.9999999403953552
			],
			"translation":[
				0,
				6.070417404174805,
				8.642673492431641e-07
			]
		},
		{
			"children":[
				25
			],
			"name":"leg_hind_right_bot0",
			"rotation":[
				0.10425599664449692,
				0.9647013545036316,
				0.1294805258512497,
				0.20424695312976837
			],
			"scale":[
				1,
				1.0000003576278687,
				1
			],
			"translation":[
				2.9614221830343013e-07,
				7.5848002433776855,
				1.308978426095564e-06
			]
		},
		{
			"children":[
				26
			],
			"name":"leg_hind_right_top1",
			"rotation":[
				0.23928767442703247,
				-0.8583860993385315,
				-0.11521071195602417,
				0.4389092028141022
			],
			"scale":[
				1.0000001192092896,
				1,
				1
			],
			"translation":[
				-2.384185791015625e-07,
				10.82952880859375,
				2.7418136596679688e-06
			]
		},
		{
			"children":[
				27
			],
			"name":"leg_hind_right_top0",
			"rotation":[
				-0.4847595691680908,
				0.670168399810791,
				-0.5500714778900146,
				0.11534270644187927
			],
			"scale":[
				0.9999999403953552,
				1,
				0.9999999403953552
			],
			"translation":[
				-5.513429641723633e-07,
				10.404881477355957,
				2.9671937227249146e-06
			]
		},
		{
			"children":[
				22,
				28
			],
			"name":"body_bot",
			"rotation":[
				0.9871578216552734,
				-0.08143418282270432,
				0.057527292519807816,
				0.12481430172920227
			],
			"scale":[
				1.000000238418579,
				0.9999999403953552,
				1.0000004768371582
			],
			"translation":[
				0.08341723680496216,
				0.9784842729568481,
				-0.12703630328178406
			]
		},
		{
			"children":[
				16,
				29
			],
			"name":"body",
			"rotation":[
				0.032580286264419556,
				0.06961064040660858,
				0.06961062550544739,
				0.9946091175079346
			],
			"translation":[
				1.91401207447052,
				-21.944921493530273,
				-15.130911827087402
			]
		},
		{
			"mesh":0,
			"name":"model",
			"skin":0
		},
		{
			"children":[
				31,
				30
			],
			"name":"rig",
			"rotation":[
				0.7071068286895752,
				0,
				0,
				0.7071068286895752
			]
		}
	],
	"materials":[
		{
			"doubleSided":true,
			"name":"tripo_material_0450d8ab-4b55-40f6-97b0-c4277bade8c5.001",
			"normalTexture":{
				"index":0
			},
			"pbrMetallicRoughness":{
				"baseColorTexture":{
					"index":1
				},
				"metallicFactor":0,
				"roughnessFactor":0.5
			}
		}
	],
	"meshes":[
		{
			"name":"model",
			"primitives":[
				{
					"attributes":{
						"POSITION":0,
						"NORMAL":1,
						"TEXCOORD_0":2,
						"JOINTS_0":3,
						"WEIGHTS_0":4
					},
					"indices":5,
					"material":0
				}
			]
		}
	],
	"textures":[
		{
			"sampler":0,
			"source":0
		},
		{
			"sampler":0,
			"source":1
		}
	],
	"images":[
		{
			"mimeType":"image/jpeg",
			"name":"NormalGL_0450d8ab-4b55-40f6-97b0-c4277bade8c5",
			"uri":"NormalGL_0450d8ab-4b55-40f6-97b0-c4277bade8c5.jpg"
		},
		{
			"mimeType":"image/jpeg",
			"name":"Color_0450d8ab-4b55-40f6-97b0-c4277bade8c5",
			"uri":"Color_0450d8ab-4b55-40f6-97b0-c4277bade8c5.jpg"
		}
	],
	"skins":[
		{
			"inverseBindMatrices":6,
			"joints":[
				30,
				16,
				15,
				5,
				4,
				3,
				2,
				1,
				0,
				8,
				7,
				6,
				14,
				13,
				12,
				11,
				10,
				9,
				29,
				22,
				21,
				20,
				19,
				18,
				17,
				28,
				27,
				26,
				25,
				24,
				23
			],
			"name":"rig"
		}
	],
	"accessors":[
		{
			"bufferView":0,
			"componentType":5126,
			"count":11824,
			"max":[
				11.16303539276123,
				26.533178329467773,
				41.41170120239258
			],
			"min":[
				-11.291841506958008,
				-26.533174514770508,
				-41.07381820678711
			],
			"type":"VEC3"
		},
		{
			"bufferView":1,
			"componentType":5126,
			"count":11824,
			"type":"VEC3"
		},
		{
			"bufferView":2,
			"componentType":5126,
			"count":11824,
			"type":"VEC2"
		},
		{
			"bufferView":3,
			"componentType":5121,
			"count":11824,
			"type":"VEC4"
		},
		{
			"bufferView":4,
			"componentType":5126,
			"count":11824,
			"type":"VEC4"
		},
		{
			"bufferView":5,
			"componentType":5123,
			"count":59544,
			"type":"SCALAR"
		},
		{
			"bufferView":6,
			"componentType":5126,
			"count":31,
			"type":"MAT4"
		}
	],
	"bufferViews":[
		{
			"buffer":0,
			"byteLength":141888,
			"byteOffset":0,
			"target":34962
		},
		{
			"buffer":0,
			"byteLength":141888,
			"byteOffset":141888,
			"target":34962
		},
		{
			"buffer":0,
			"byteLength":94592,
			"byteOffset":283776,
			"target":34962
		},
		{
			"buffer":0,
			"byteLength":47296,
			"byteOffset":378368,
			"target":34962
		},
		{
			"buffer":0,
			"byteLength":189184,
			"byteOffset":425664,
			"target":34962
		},
		{
			"buffer":0,
			"byteLength":119088,
			"byteOffset":614848,
			"target":34963
		},
		{
			"buffer":0,
			"byteLength":1984,
			"byteOffset":733936
		}
	],
	"samplers":[
		{
			"magFilter":9729,
			"minFilter":9987
		}
	],
	"buffers":[
		{
			"byteLength":735920,
			"uri":"model.bin"
		}
	]
}
