{
	"asset":{
		"generator":"Khronos glTF Blender I/O v4.1.62",
		"version":"2.0"
	},
	"scene":0,
	"scenes":[
		{
			"name":"Scene",
			"nodes":[
				27
			]
		}
	],
	"nodes":[
		{
			"name":"leg_front_left_bot2",
			"rotation":[
				0.009361714124679565,
				-0.7070451378822327,
				-0.7070444226264954,
				0.00936472974717617
			],
			"scale":[
				1,
				1,
				0.9999999403953552
			],
			"translation":[
				1.4046599972061813e-07,
				15.105295181274414,
				-3.8743746699765325e-07
			]
		},
		{
			"children":[
				0
			],
			"name":"leg_front_left_bot1",
			"rotation":[
				-0.001870863139629364,
				0.1412842869758606,
				0.025242330506443977,
				0.9896454811096191
			],
			"scale":[
				1,
				0.9999998211860657,
				1
			],
			"translation":[
				4.172325134277344e-07,
				4.6135687828063965,
				-6.92903995513916e-07
			]
		},
		{
			"children":[
				1
			],
			"name":"leg_front_left_bot0",
			"rotation":[
				-0.025484105572104454,
				0.9852167367935181,
				0.08894886821508408,
				0.14417563378810883
			],
			"scale":[
				1.0000001192092896,
				1.0000003576278687,
				0.9999999403953552
			],
			"translation":[
				1.6381409295718186e-07,
				11.166512489318848,
				-1.2466489351936616e-06
			]
		},
		{
			"children":[
				2
			],
			"name":"leg_front_left_top1",
			"rotation":[
				-0.3065973222255707,
				-0.9418650269508362,
				-0.08503537625074387,
				0.10796931385993958
			],
			"scale":[
				0.9999998807907104,
				0.9999998211860657,
				0.9999999403953552
			],
			"translation":[
				-3.5762786865234375e-07,
				8.888671875,
				-9.5367431640625e-07
			]
		},
		{
			"children":[
				3
			],
			"name":"leg_front_left_top0",
			"rotation":[
				-0.3046685755252838,
				-0.667934238910675,
				-0.6709951758384705,
				0.10395394265651703
			],
			"scale":[
				0.9999997615814209,
				0.9999999403953552,
				0.9999997615814209
			],
			"translation":[
				0.15018515288829803,
				10.111332893371582,
				1.42942476272583
			]
		},
		{
			"name":"head0",
			"rotation":[
				0.43723639845848083,
				-0.2129187136888504,
				-0.2376580387353897,
				0.8408380746841431
			],
			"scale":[
				0.9999998807907104,
				0.9999999403953552,
				0.9999999403953552
			],
			"translation":[
				-5.960464477539063e-08,
				11.768169403076172,
				-1.7862766981124878e-06
			]
		},
		{
			"children":[
				5
			],
			"name":"neck0",
			"rotation":[
				-0.08235692232847214,
				0.007445517927408218,
				0.006288344506174326,
				0.9965552687644958
			],
			"scale":[
				0.9999999403953552,
				0.9999998807907104,
				0.9999998807907104
			],
			"translation":[
				-3.577258667064598e-07,
				17.997465133666992,
				2.9612051548610907e-06
			]
		},
		{
			"name":"leg_front_right_bot2",
			"rotation":[
				0.009303088299930096,
				0.7070438861846924,
				0.7070456743240356,
				0.009423555806279182
			],
			"translation":[
				-2.5564804673194885e-07,
				15.105310440063477,
				-1.5398181858472526e-06
			]
		},
		{
			"children":[
				7
			],
			"name":"leg_front_right_bot1",
			"rotation":[
				-0.001868818886578083,
				-0.1412128508090973,
				-0.025243036448955536,
				0.989655613899231
			],
			"scale":[
				0.9999999403953552,
				0.9999998807907104,
				1
			],
			"translation":[
				0,
				4.61356782913208,
				-3.725290298461914e-08
			]
		},
		{
			"children":[
				8
			],
			"name":"leg_front_right_bot0",
			"rotation":[
				-0.025483498349785805,
				-0.9852156043052673,
				-0.08894889056682587,
				0.14418374001979828
			],
			"scale":[
				1,
				0.9999997019767761,
				1
			],
			"translation":[
				-5.786646397609729e-07,
				11.16650104522705,
				-1.9513727238518186e-06
			]
		},
		{
			"children":[
				9
			],
			"name":"leg_front_right_top1",
			"rotation":[
				-0.3065975308418274,
				0.9418652653694153,
				0.08503461629152298,
				0.10796719044446945
			],
			"scale":[
				1.0000001192092896,
				0.9999999403953552,
				0.9999999403953552
			],
			"translation":[
				3.5762786865234375e-07,
				8.888668060302734,
				-9.834766387939453e-07
			]
		},
		{
			"children":[
				10
			],
			"name":"leg_front_right_top0",
			"rotation":[
				-0.3046686351299286,
				0.6705906391143799,
				0.6651819348335266,
				0.12254910171031952
			],
			"scale":[
				0.9999998807907104,
				0.9999999403953552,
				0.9999999403953552
			],
			"translation":[
				-0.4088914692401886,
				10.119102478027344,
				1.4216444492340088
			]
		},
		{
			"children":[
				4,
				6,
				11
			],
			"name":"body_top1",
			"rotation":[
				-0.020036516711115837,
				-0.010427620261907578,
				-0.010687642730772495,
				0.9996877312660217
			],
			"scale":[
				1,
				0.9999999403953552,
				1
			],
			"translation":[
				7.450580596923828e-07,
				10.215194702148438,
				6.901100277900696e-07
			]
		},
		{
			"children":[
				12
			],
			"name":"body_top0",
			"rotation":[
				-0.011761141940951347,
				-0.053047265857458115,
				-0.051276255398988724,
				0.9972053170204163
			],
			"scale":[
				0.9999999403953552,
				0.9999999403953552,
				0.9999999403953552
			],
			"translation":[
				5.364418029785156e-07,
				9.810832977294922,
				-7.972121238708496e-07
			]
		},
		{
			"name":"leg_hind_left_bot2",
			"rotation":[
				0.00743318535387516,
				-0.7070667147636414,
				-0.7070673108100891,
				0.007562996819615364
			],
			"scale":[
				0.9999999403953552,
				1,
				1
			],
			"translation":[
				2.5099143385887146e-07,
				16.503721237182617,
				-1.0130243026651442e-06
			]
		},
		{
			"children":[
				14
			],
			"name":"leg_hind_left_bot1",
			"rotation":[
				0.002300071297213435,
				-0.21637959778308868,
				0.06583349406719208,
				0.9740844964981079
			],
			"translation":[
				-1.6689300537109375e-06,
				6.070418834686279,
				1.3113021850585938e-06
			]
		},
		{
			"children":[
				15
			],
			"name":"leg_hind_left_bot0",
			"rotation":[
				0.10425639152526855,
				-0.9647008180618286,
				-0.12947987020015717,
				0.2042497843503952
			],
			"scale":[
				1,
				0.9999998211860657,
				1.0000001192092896
			],
			"translation":[
				5.143101589055732e-08,
				7.5847930908203125,
				-2.8248723538126796e-07
			]
		},
		{
			"children":[
				16
			],
			"name":"leg_hind_left_top1",
			"rotation":[
				0.05562496930360794,
				0.5421195030212402,
				0.07276187092065811,
				0.8352952003479004
			],
			"scale":[
				1,
				0.9999998211860657,
				1
			],
			"translation":[
				-2.8014183044433594e-06,
				9.397378921508789,
				-4.76837158203125e-07
			]
		},
		{
			"children":[
				17
			],
			"name":"leg_hind_left_top0",
			"rotation":[
				-0.6513072848320007,
				-0.4149417281150818,
				0.35012897849082947,
				0.5301244258880615
			],
			"scale":[
				0.9999998807907104,
				0.9999999403953552,
				0.9999998807907104
			],
			"translation":[
				0.3460657596588135,
				10.395662307739258,
				-0.06600286066532135
			]
		},
		{
			"name":"leg_hind_right_bot2",
			"rotation":[
				0.007453619502484798,
				0.7070665955543518,
				0.7070674300193787,
				0.007543270010501146
			],
			"scale":[
				0.9999999403953552,
				1,
				0.9999999403953552
			],
			"translation":[
				-3.282912075519562e-08,
				16.503700256347656,
				-3.053995897062123e-06
			]
		},
		{
			"children":[
				19
			],
			"name":"leg_hind_right_bot1",
			"rotation":[
				0.00229789805598557,
				0.2163495421409607,
				-0.06583353877067566,
				0.974091112613678
			],
			"translation":[
				0,
				6.070417404174805,
				-2.1457672119140625e-06
			]
		},
		{
			"children":[
				20
			],
			"name":"leg_hind_right_bot0",
			"rotation":[
				0.10425634682178497,
				0.9647015333175659,
				0.12948043644428253,
				0.20424588024616241
			],
			"scale":[
				1,
				0.9999998807907104,
				1
			],
			"translation":[
				-3.926402314391453e-06,
				7.584796905517578,
				-3.2221000765275676e-06
			]
		},
		{
			"children":[
				21
			],
			"name":"leg_hind_right_top1",
			"rotation":[
				0.23928751051425934,
				-0.8583866953849792,
				-0.11521106958389282,
				0.4389079809188843
			],
			"scale":[
				1,
				1.0000001192092896,
				1.0000001192092896
			],
			"translation":[
				-2.9802322387695312e-06,
				10.829523086547852,
				6.9141387939453125e-06
			]
		},
		{
			"children":[
				22
			],
			"name":"leg_hind_right_top0",
			"rotation":[
				-0.48475944995880127,
				0.6701685190200806,
				-0.5500715970993042,
				0.11534259468317032
			],
			"scale":[
				0.9999999403953552,
				0.9999997019767761,
				1
			],
			"translation":[
				-1.4901161193847656e-07,
				10.404881477355957,
				7.227063179016113e-07
			]
		},
		{
			"children":[
				18,
				23
			],
			"name":"body_bot",
			"rotation":[
				0.9871577620506287,
				-0.0814342275261879,
				0.05752744898200035,
				0.12481432408094406
			],
			"scale":[
				1.000000238418579,
				0.9999999403953552,
				1.000000238418579
			],
			"translation":[
				0.08341771364212036,
				0.9784839749336243,
				-0.12703800201416016
			]
		},
		{
			"children":[
				13,
				24
			],
			"name":"body",
			"rotation":[
				0.03258028253912926,
				0.06961066275835037,
				0.06961064040660858,
				0.9946091175079346
			],
			"translation":[
				1.91401207447052,
				-21.944921493530273,
				-15.130911827087402
			]
		},
		{
			"mesh":0,
			"name":"model",
			"skin":0
		},
		{
			"children":[
				26,
				25
			],
			"name":"rig",
			"rotation":[
				0.7071068286895752,
				0,
				0,
				0.7071068286895752
			]
		}
	],
	"animations":[
		{
			"channels":[
				{
					"sampler":0,
					"target":{
						"node":25,
						"path":"translation"
					}
				},
				{
					"sampler":1,
					"target":{
						"node":25,
						"path":"rotation"
					}
				},
				{
					"sampler":2,
					"target":{
						"node":25,
						"path":"scale"
					}
				},
				{
					"sampler":3,
					"target":{
						"node":13,
						"path":"translation"
					}
				},
				{
					"sampler":4,
					"target":{
						"node":13,
						"path":"rotation"
					}
				},
				{
					"sampler":5,
					"target":{
						"node":13,
						"path":"scale"
					}
				},
				{
					"sampler":6,
					"target":{
						"node":12,
						"path":"translation"
					}
				},
				{
					"sampler":7,
					"target":{
						"node":12,
						"path":"rotation"
					}
				},
				{
					"sampler":8,
					"target":{
						"node":12,
						"path":"scale"
					}
				},
				{
					"sampler":9,
					"target":{
						"node":4,
						"path":"translation"
					}
				},
				{
					"sampler":10,
					"target":{
						"node":4,
						"path":"rotation"
					}
				},
				{
					"sampler":11,
					"target":{
						"node":4,
						"path":"scale"
					}
				},
				{
					"sampler":12,
					"target":{
						"node":3,
						"path":"translation"
					}
				},
				{
					"sampler":13,
					"target":{
						"node":3,
						"path":"rotation"
					}
				},
				{
					"sampler":14,
					"target":{
						"node":3,
						"path":"scale"
					}
				},
				{
					"sampler":15,
					"target":{
						"node":2,
						"path":"translation"
					}
				},
				{
					"sampler":16,
					"target":{
						"node":2,
						"path":"rotation"
					}
				},
				{
					"sampler":17,
					"target":{
						"node":2,
						"path":"scale"
					}
				},
				{
					"sampler":18,
					"target":{
						"node":1,
						"path":"translation"
					}
				},
				{
					"sampler":19,
					"target":{
						"node":1,
						"path":"rotation"
					}
				},
				{
					"sampler":20,
					"target":{
						"node":1,
						"path":"scale"
					}
				},
				{
					"sampler":21,
					"target":{
						"node":0,
						"path":"translation"
					}
				},
				{
					"sampler":22,
					"target":{
						"node":0,
						"path":"rotation"
					}
				},
				{
					"sampler":23,
					"target":{
						"node":0,
						"path":"scale"
					}
				},
				{
					"sampler":24,
					"target":{
						"node":6,
						"path":"translation"
					}
				},
				{
					"sampler":25,
					"target":{
						"node":6,
						"path":"rotation"
					}
				},
				{
					"sampler":26,
					"target":{
						"node":6,
						"path":"scale"
					}
				},
				{
					"sampler":27,
					"target":{
						"node":5,
						"path":"translation"
					}
				},
				{
					"sampler":28,
					"target":{
						"node":5,
						"path":"rotation"
					}
				},
				{
					"sampler":29,
					"target":{
						"node":5,
						"path":"scale"
					}
				},
				{
					"sampler":30,
					"target":{
						"node":11,
						"path":"translation"
					}
				},
				{
					"sampler":31,
					"target":{
						"node":11,
						"path":"rotation"
					}
				},
				{
					"sampler":32,
					"target":{
						"node":11,
						"path":"scale"
					}
				},
				{
					"sampler":33,
					"target":{
						"node":10,
						"path":"translation"
					}
				},
				{
					"sampler":34,
					"target":{
						"node":10,
						"path":"rotation"
					}
				},
				{
					"sampler":35,
					"target":{
						"node":10,
						"path":"scale"
					}
				},
				{
					"sampler":36,
					"target":{
						"node":9,
						"path":"translation"
					}
				},
				{
					"sampler":37,
					"target":{
						"node":9,
						"path":"rotation"
					}
				},
				{
					"sampler":38,
					"target":{
						"node":9,
						"path":"scale"
					}
				},
				{
					"sampler":39,
					"target":{
						"node":8,
						"path":"translation"
					}
				},
				{
					"sampler":40,
					"target":{
						"node":8,
						"path":"rotation"
					}
				},
				{
					"sampler":41,
					"target":{
						"node":8,
						"path":"scale"
					}
				},
				{
					"sampler":42,
					"target":{
						"node":7,
						"path":"translation"
					}
				},
				{
					"sampler":43,
					"target":{
						"node":7,
						"path":"rotation"
					}
				},
				{
					"sampler":44,
					"target":{
						"node":7,
						"path":"scale"
					}
				},
				{
					"sampler":45,
					"target":{
						"node":24,
						"path":"translation"
					}
				},
				{
					"sampler":46,
					"target":{
						"node":24,
						"path":"rotation"
					}
				},
				{
					"sampler":47,
					"target":{
						"node":24,
						"path":"scale"
					}
				},
				{
					"sampler":48,
					"target":{
						"node":18,
						"path":"translation"
					}
				},
				{
					"sampler":49,
					"target":{
						"node":18,
						"path":"rotation"
					}
				},
				{
					"sampler":50,
					"target":{
						"node":18,
						"path":"scale"
					}
				},
				{
					"sampler":51,
					"target":{
						"node":17,
						"path":"translation"
					}
				},
				{
					"sampler":52,
					"target":{
						"node":17,
						"path":"rotation"
					}
				},
				{
					"sampler":53,
					"target":{
						"node":17,
						"path":"scale"
					}
				},
				{
					"sampler":54,
					"target":{
						"node":16,
						"path":"translation"
					}
				},
				{
					"sampler":55,
					"target":{
						"node":16,
						"path":"rotation"
					}
				},
				{
					"sampler":56,
					"target":{
						"node":16,
						"path":"scale"
					}
				},
				{
					"sampler":57,
					"target":{
						"node":15,
						"path":"translation"
					}
				},
				{
					"sampler":58,
					"target":{
						"node":15,
						"path":"rotation"
					}
				},
				{
					"sampler":59,
					"target":{
						"node":15,
						"path":"scale"
					}
				},
				{
					"sampler":60,
					"target":{
						"node":14,
						"path":"translation"
					}
				},
				{
					"sampler":61,
					"target":{
						"node":14,
						"path":"rotation"
					}
				},
				{
					"sampler":62,
					"target":{
						"node":14,
						"path":"scale"
					}
				},
				{
					"sampler":63,
					"target":{
						"node":23,
						"path":"translation"
					}
				},
				{
					"sampler":64,
					"target":{
						"node":23,
						"path":"rotation"
					}
				},
				{
					"sampler":65,
					"target":{
						"node":23,
						"path":"scale"
					}
				},
				{
					"sampler":66,
					"target":{
						"node":22,
						"path":"translation"
					}
				},
				{
					"sampler":67,
					"target":{
						"node":22,
						"path":"rotation"
					}
				},
				{
					"sampler":68,
					"target":{
						"node":22,
						"path":"scale"
					}
				},
				{
					"sampler":69,
					"target":{
						"node":21,
						"path":"translation"
					}
				},
				{
					"sampler":70,
					"target":{
						"node":21,
						"path":"rotation"
					}
				},
				{
					"sampler":71,
					"target":{
						"node":21,
						"path":"scale"
					}
				},
				{
					"sampler":72,
					"target":{
						"node":20,
						"path":"translation"
					}
				},
				{
					"sampler":73,
					"target":{
						"node":20,
						"path":"rotation"
					}
				},
				{
					"sampler":74,
					"target":{
						"node":20,
						"path":"scale"
					}
				},
				{
					"sampler":75,
					"target":{
						"node":19,
						"path":"translation"
					}
				},
				{
					"sampler":76,
					"target":{
						"node":19,
						"path":"rotation"
					}
				},
				{
					"sampler":77,
					"target":{
						"node":19,
						"path":"scale"
					}
				},
				{
					"sampler":78,
					"target":{
						"node":27,
						"path":"translation"
					}
				},
				{
					"sampler":79,
					"target":{
						"node":27,
						"path":"rotation"
					}
				},
				{
					"sampler":80,
					"target":{
						"node":27,
						"path":"scale"
					}
				}
			],
			"name":"rig|rig|idle",
			"samplers":[
				{
					"input":7,
					"interpolation":"STEP",
					"output":8
				},
				{
					"input":7,
					"interpolation":"STEP",
					"output":9
				},
				{
					"input":7,
					"interpolation":"STEP",
					"output":10
				},
				{
					"input":7,
					"interpolation":"STEP",
					"output":11
				},
				{
					"input":12,
					"interpolation":"LINEAR",
					"output":13
				},
				{
					"input":7,
					"interpolation":"STEP",
					"output":14
				},
				{
					"input":7,
					"interpolation":"STEP",
					"output":15
				},
				{
					"input":12,
					"interpolation":"LINEAR",
					"output":16
				},
				{
					"input":7,
					"interpolation":"STEP",
					"output":17
				},
				{
					"input":7,
					"interpolation":"STEP",
					"output":18
				},
				{
					"input":12,
					"interpolation":"LINEAR",
					"output":19
				},
				{
					"input":7,
					"interpolation":"STEP",
					"output":20
				},
				{
					"input":7,
					"interpolation":"STEP",
					"output":21
				},
				{
					"input":12,
					"interpolation":"LINEAR",
					"output":22
				},
				{
					"input":7,
					"interpolation":"STEP",
					"output":23
				},
				{
					"input":7,
					"interpolation":"STEP",
					"output":24
				},
				{
					"input":12,
					"interpolation":"LINEAR",
					"output":25
				},
				{
					"input":7,
					"interpolation":"STEP",
					"output":26
				},
				{
					"input":7,
					"interpolation":"LINEAR",
					"output":27
				},
				{
					"input":12,
					"interpolation":"LINEAR",
					"output":28
				},
				{
					"input":7,
					"interpolation":"STEP",
					"output":29
				},
				{
					"input":7,
					"interpolation":"LINEAR",
					"output":30
				},
				{
					"input":12,
					"interpolation":"LINEAR",
					"output":31
				},
				{
					"input":7,
					"interpolation":"STEP",
					"output":32
				},
				{
					"input":7,
					"interpolation":"STEP",
					"output":33
				},
				{
					"input":12,
					"interpolation":"LINEAR",
					"output":34
				},
				{
					"input":7,
					"interpolation":"STEP",
					"output":35
				},
				{
					"input":7,
					"interpolation":"STEP",
					"output":36
				},
				{
					"input":12,
					"interpolation":"LINEAR",
					"output":37
				},
				{
					"input":7,
					"interpolation":"STEP",
					"output":38
				},
				{
					"input":7,
					"interpolation":"STEP",
					"output":39
				},
				{
					"input":12,
					"interpolation":"LINEAR",
					"output":40
				},
				{
					"input":7,
					"interpolation":"STEP",
					"output":41
				},
				{
					"input":7,
					"interpolation":"STEP",
					"output":42
				},
				{
					"input":12,
					"interpolation":"LINEAR",
					"output":43
				},
				{
					"input":7,
					"interpolation":"STEP",
					"output":44
				},
				{
					"input":7,
					"interpolation":"STEP",
					"output":45
				},
				{
					"input":12,
					"interpolation":"LINEAR",
					"output":46
				},
				{
					"input":7,
					"interpolation":"STEP",
					"output":47
				},
				{
					"input":7,
					"interpolation":"STEP",
					"output":48
				},
				{
					"input":12,
					"interpolation":"LINEAR",
					"output":49
				},
				{
					"input":7,
					"interpolation":"STEP",
					"output":50
				},
				{
					"input":7,
					"interpolation":"STEP",
					"output":51
				},
				{
					"input":12,
					"interpolation":"LINEAR",
					"output":52
				},
				{
					"input":7,
					"interpolation":"STEP",
					"output":53
				},
				{
					"input":7,
					"interpolation":"STEP",
					"output":54
				},
				{
					"input":12,
					"interpolation":"LINEAR",
					"output":55
				},
				{
					"input":7,
					"interpolation":"STEP",
					"output":56
				},
				{
					"input":7,
					"interpolation":"STEP",
					"output":57
				},
				{
					"input":12,
					"interpolation":"LINEAR",
					"output":58
				},
				{
					"input":7,
					"interpolation":"STEP",
					"output":59
				},
				{
					"input":7,
					"interpolation":"STEP",
					"output":60
				},
				{
					"input":12,
					"interpolation":"LINEAR",
					"output":61
				},
				{
					"input":7,
					"interpolation":"STEP",
					"output":62
				},
				{
					"input":7,
					"interpolation":"STEP",
					"output":63
				},
				{
					"input":12,
					"interpolation":"LINEAR",
					"output":64
				},
				{
					"input":7,
					"interpolation":"STEP",
					"output":65
				},
				{
					"input":7,
					"interpolation":"STEP",
					"output":66
				},
				{
					"input":12,
					"interpolation":"LINEAR",
					"output":67
				},
				{
					"input":7,
					"interpolation":"STEP",
					"output":68
				},
				{
					"input":7,
					"interpolation":"STEP",
					"output":69
				},
				{
					"input":12,
					"interpolation":"LINEAR",
					"output":70
				},
				{
					"input":7,
					"interpolation":"STEP",
					"output":71
				},
				{
					"input":7,
					"interpolation":"STEP",
					"output":72
				},
				{
					"input":12,
					"interpolation":"LINEAR",
					"output":73
				},
				{
					"input":7,
					"interpolation":"STEP",
					"output":74
				},
				{
					"input":7,
					"interpolation":"STEP",
					"output":75
				},
				{
					"input":12,
					"interpolation":"LINEAR",
					"output":76
				},
				{
					"input":7,
					"interpolation":"STEP",
					"output":77
				},
				{
					"input":7,
					"interpolation":"STEP",
					"output":78
				},
				{
					"input":12,
					"interpolation":"LINEAR",
					"output":79
				},
				{
					"input":7,
					"interpolation":"STEP",
					"output":80
				},
				{
					"input":7,
					"interpolation":"STEP",
					"output":81
				},
				{
					"input":12,
					"interpolation":"LINEAR",
					"output":82
				},
				{
					"input":7,
					"interpolation":"STEP",
					"output":83
				},
				{
					"input":7,
					"interpolation":"STEP",
					"output":84
				},
				{
					"input":12,
					"interpolation":"LINEAR",
					"output":85
				},
				{
					"input":7,
					"interpolation":"STEP",
					"output":86
				},
				{
					"input":7,
					"interpolation":"STEP",
					"output":87
				},
				{
					"input":7,
					"interpolation":"STEP",
					"output":88
				},
				{
					"input":7,
					"interpolation":"STEP",
					"output":89
				}
			]
		}
	],
	"materials":[
		{
			"doubleSided":true,
			"name":"tripo_material_0450d8ab-4b55-40f6-97b0-c4277bade8c5.001",
			"normalTexture":{
				"index":0
			},
			"pbrMetallicRoughness":{
				"baseColorTexture":{
					"index":1
				},
				"metallicFactor":0,
				"roughnessFactor":0.5
			}
		}
	],
	"meshes":[
		{
			"name":"model",
			"primitives":[
				{
					"attributes":{
						"POSITION":0,
						"NORMAL":1,
						"TEXCOORD_0":2,
						"JOINTS_0":3,
						"WEIGHTS_0":4
					},
					"indices":5,
					"material":0
				}
			]
		}
	],
	"textures":[
		{
			"sampler":0,
			"source":0
		},
		{
			"sampler":0,
			"source":1
		}
	],
	"images":[
		{
			"mimeType":"image/jpeg",
			"name":"NormalGL_0450d8ab-4b55-40f6-97b0-c4277bade8c5",
			"uri":"NormalGL_0450d8ab-4b55-40f6-97b0-c4277bade8c5.jpg"
		},
		{
			"mimeType":"image/jpeg",
			"name":"Color_0450d8ab-4b55-40f6-97b0-c4277bade8c5",
			"uri":"Color_0450d8ab-4b55-40f6-97b0-c4277bade8c5.jpg"
		}
	],
	"skins":[
		{
			"inverseBindMatrices":6,
			"joints":[
				25,
				13,
				12,
				4,
				3,
				2,
				1,
				0,
				6,
				5,
				11,
				10,
				9,
				8,
				7,
				24,
				18,
				17,
				16,
				15,
				14,
				23,
				22,
				21,
				20,
				19
			],
			"name":"rig"
		}
	],
	"accessors":[
		{
			"bufferView":0,
			"componentType":5126,
			"count":11824,
			"max":[
				11.16303539276123,
				26.533172607421875,
				41.41169738769531
			],
			"min":[
				-11.291841506958008,
				-26.533170700073242,
				-41.07381820678711
			],
			"type":"VEC3"
		},
		{
			"bufferView":1,
			"componentType":5126,
			"count":11824,
			"type":"VEC3"
		},
		{
			"bufferView":2,
			"componentType":5126,
			"count":11824,
			"type":"VEC2"
		},
		{
			"bufferView":3,
			"componentType":5121,
			"count":11824,
			"type":"VEC4"
		},
		{
			"bufferView":4,
			"componentType":5126,
			"count":11824,
			"type":"VEC4"
		},
		{
			"bufferView":5,
			"componentType":5123,
			"count":59544,
			"type":"SCALAR"
		},
		{
			"bufferView":6,
			"componentType":5126,
			"count":26,
			"type":"MAT4"
		},
		{
			"bufferView":7,
			"componentType":5126,
			"count":2,
			"max":[
				4.033333333333333
			],
			"min":[
				0.03333333333333333
			],
			"type":"SCALAR"
		},
		{
			"bufferView":8,
			"componentType":5126,
			"count":2,
			"type":"VEC3"
		},
		{
			"bufferView":9,
			"componentType":5126,
			"count":2,
			"type":"VEC4"
		},
		{
			"bufferView":10,
			"componentType":5126,
			"count":2,
			"type":"VEC3"
		},
		{
			"bufferView":11,
			"componentType":5126,
			"count":2,
			"type":"VEC3"
		},
		{
			"bufferView":12,
			"componentType":5126,
			"count":121,
			"max":[
				4.033333333333333
			],
			"min":[
				0.03333333333333333
			],
			"type":"SCALAR"
		},
		{
			"bufferView":13,
			"componentType":5126,
			"count":121,
			"type":"VEC4"
		},
		{
			"bufferView":14,
			"componentType":5126,
			"count":2,
			"type":"VEC3"
		},
		{
			"bufferView":15,
			"componentType":5126,
			"count":2,
			"type":"VEC3"
		},
		{
			"bufferView":16,
			"componentType":5126,
			"count":121,
			"type":"VEC4"
		},
		{
			"bufferView":17,
			"componentType":5126,
			"count":2,
			"type":"VEC3"
		},
		{
			"bufferView":18,
			"componentType":5126,
			"count":2,
			"type":"VEC3"
		},
		{
			"bufferView":19,
			"componentType":5126,
			"count":121,
			"type":"VEC4"
		},
		{
			"bufferView":20,
			"componentType":5126,
			"count":2,
			"type":"VEC3"
		},
		{
			"bufferView":21,
			"componentType":5126,
			"count":2,
			"type":"VEC3"
		},
		{
			"bufferView":22,
			"componentType":5126,
			"count":121,
			"type":"VEC4"
		},
		{
			"bufferView":23,
			"componentType":5126,
			"count":2,
			"type":"VEC3"
		},
		{
			"bufferView":24,
			"componentType":5126,
			"count":2,
			"type":"VEC3"
		},
		{
			"bufferView":25,
			"componentType":5126,
			"count":121,
			"type":"VEC4"
		},
		{
			"bufferView":26,
			"componentType":5126,
			"count":2,
			"type":"VEC3"
		},
		{
			"bufferView":27,
			"componentType":5126,
			"count":2,
			"type":"VEC3"
		},
		{
			"bufferView":28,
			"componentType":5126,
			"count":121,
			"type":"VEC4"
		},
		{
			"bufferView":29,
			"componentType":5126,
			"count":2,
			"type":"VEC3"
		},
		{
			"bufferView":30,
			"componentType":5126,
			"count":2,
			"type":"VEC3"
		},
		{
			"bufferView":31,
			"componentType":5126,
			"count":121,
			"type":"VEC4"
		},
		{
			"bufferView":32,
			"componentType":5126,
			"count":2,
			"type":"VEC3"
		},
		{
			"bufferView":33,
			"componentType":5126,
			"count":2,
			"type":"VEC3"
		},
		{
			"bufferView":34,
			"componentType":5126,
			"count":121,
			"type":"VEC4"
		},
		{
			"bufferView":35,
			"componentType":5126,
			"count":2,
			"type":"VEC3"
		},
		{
			"bufferView":36,
			"componentType":5126,
			"count":2,
			"type":"VEC3"
		},
		{
			"bufferView":37,
			"componentType":5126,
			"count":121,
			"type":"VEC4"
		},
		{
			"bufferView":38,
			"componentType":5126,
			"count":2,
			"type":"VEC3"
		},
		{
			"bufferView":39,
			"componentType":5126,
			"count":2,
			"type":"VEC3"
		},
		{
			"bufferView":40,
			"componentType":5126,
			"count":121,
			"type":"VEC4"
		},
		{
			"bufferView":41,
			"componentType":5126,
			"count":2,
			"type":"VEC3"
		},
		{
			"bufferView":42,
			"componentType":5126,
			"count":2,
			"type":"VEC3"
		},
		{
			"bufferView":43,
			"componentType":5126,
			"count":121,
			"type":"VEC4"
		},
		{
			"bufferView":44,
			"componentType":5126,
			"count":2,
			"type":"VEC3"
		},
		{
			"bufferView":45,
			"componentType":5126,
			"count":2,
			"type":"VEC3"
		},
		{
			"bufferView":46,
			"componentType":5126,
			"count":121,
			"type":"VEC4"
		},
		{
			"bufferView":47,
			"componentType":5126,
			"count":2,
			"type":"VEC3"
		},
		{
			"bufferView":48,
			"componentType":5126,
			"count":2,
			"type":"VEC3"
		},
		{
			"bufferView":49,
			"componentType":5126,
			"count":121,
			"type":"VEC4"
		},
		{
			"bufferView":50,
			"componentType":5126,
			"count":2,
			"type":"VEC3"
		},
		{
			"bufferView":51,
			"componentType":5126,
			"count":2,
			"type":"VEC3"
		},
		{
			"bufferView":52,
			"componentType":5126,
			"count":121,
			"type":"VEC4"
		},
		{
			"bufferView":53,
			"componentType":5126,
			"count":2,
			"type":"VEC3"
		},
		{
			"bufferView":54,
			"componentType":5126,
			"count":2,
			"type":"VEC3"
		},
		{
			"bufferView":55,
			"componentType":5126,
			"count":121,
			"type":"VEC4"
		},
		{
			"bufferView":56,
			"componentType":5126,
			"count":2,
			"type":"VEC3"
		},
		{
			"bufferView":57,
			"componentType":5126,
			"count":2,
			"type":"VEC3"
		},
		{
			"bufferView":58,
			"componentType":5126,
			"count":121,
			"type":"VEC4"
		},
		{
			"bufferView":59,
			"componentType":5126,
			"count":2,
			"type":"VEC3"
		},
		{
			"bufferView":60,
			"componentType":5126,
			"count":2,
			"type":"VEC3"
		},
		{
			"bufferView":61,
			"componentType":5126,
			"count":121,
			"type":"VEC4"
		},
		{
			"bufferView":62,
			"componentType":5126,
			"count":2,
			"type":"VEC3"
		},
		{
			"bufferView":63,
			"componentType":5126,
			"count":2,
			"type":"VEC3"
		},
		{
			"bufferView":64,
			"componentType":5126,
			"count":121,
			"type":"VEC4"
		},
		{
			"bufferView":65,
			"componentType":5126,
			"count":2,
			"type":"VEC3"
		},
		{
			"bufferView":66,
			"componentType":5126,
			"count":2,
			"type":"VEC3"
		},
		{
			"bufferView":67,
			"componentType":5126,
			"count":121,
			"type":"VEC4"
		},
		{
			"bufferView":68,
			"componentType":5126,
			"count":2,
			"type":"VEC3"
		},
		{
			"bufferView":69,
			"componentType":5126,
			"count":2,
			"type":"VEC3"
		},
		{
			"bufferView":70,
			"componentType":5126,
			"count":121,
			"type":"VEC4"
		},
		{
			"bufferView":71,
			"componentType":5126,
			"count":2,
			"type":"VEC3"
		},
		{
			"bufferView":72,
			"componentType":5126,
			"count":2,
			"type":"VEC3"
		},
		{
			"bufferView":73,
			"componentType":5126,
			"count":121,
			"type":"VEC4"
		},
		{
			"bufferView":74,
			"componentType":5126,
			"count":2,
			"type":"VEC3"
		},
		{
			"bufferView":75,
			"componentType":5126,
			"count":2,
			"type":"VEC3"
		},
		{
			"bufferView":76,
			"componentType":5126,
			"count":121,
			"type":"VEC4"
		},
		{
			"bufferView":77,
			"componentType":5126,
			"count":2,
			"type":"VEC3"
		},
		{
			"bufferView":78,
			"componentType":5126,
			"count":2,
			"type":"VEC3"
		},
		{
			"bufferView":79,
			"componentType":5126,
			"count":121,
			"type":"VEC4"
		},
		{
			"bufferView":80,
			"componentType":5126,
			"count":2,
			"type":"VEC3"
		},
		{
			"bufferView":81,
			"componentType":5126,
			"count":2,
			"type":"VEC3"
		},
		{
			"bufferView":82,
			"componentType":5126,
			"count":121,
			"type":"VEC4"
		},
		{
			"bufferView":83,
			"componentType":5126,
			"count":2,
			"type":"VEC3"
		},
		{
			"bufferView":84,
			"componentType":5126,
			"count":2,
			"type":"VEC3"
		},
		{
			"bufferView":85,
			"componentType":5126,
			"count":121,
			"type":"VEC4"
		},
		{
			"bufferView":86,
			"componentType":5126,
			"count":2,
			"type":"VEC3"
		},
		{
			"bufferView":87,
			"componentType":5126,
			"count":2,
			"type":"VEC3"
		},
		{
			"bufferView":88,
			"componentType":5126,
			"count":2,
			"type":"VEC4"
		},
		{
			"bufferView":89,
			"componentType":5126,
			"count":2,
			"type":"VEC3"
		}
	],
	"bufferViews":[
		{
			"buffer":0,
			"byteLength":141888,
			"byteOffset":0,
			"target":34962
		},
		{
			"buffer":0,
			"byteLength":141888,
			"byteOffset":141888,
			"target":34962
		},
		{
			"buffer":0,
			"byteLength":94592,
			"byteOffset":283776,
			"target":34962
		},
		{
			"buffer":0,
			"byteLength":47296,
			"byteOffset":378368,
			"target":34962
		},
		{
			"buffer":0,
			"byteLength":189184,
			"byteOffset":425664,
			"target":34962
		},
		{
			"buffer":0,
			"byteLength":119088,
			"byteOffset":614848,
			"target":34963
		},
		{
			"buffer":0,
			"byteLength":1664,
			"byteOffset":733936
		},
		{
			"buffer":0,
			"byteLength":8,
			"byteOffset":735600
		},
		{
			"buffer":0,
			"byteLength":24,
			"byteOffset":735608
		},
		{
			"buffer":0,
			"byteLength":32,
			"byteOffset":735632
		},
		{
			"buffer":0,
			"byteLength":24,
			"byteOffset":735664
		},
		{
			"buffer":0,
			"byteLength":24,
			"byteOffset":735688
		},
		{
			"buffer":0,
			"byteLength":484,
			"byteOffset":735712
		},
		{
			"buffer":0,
			"byteLength":1936,
			"byteOffset":736196
		},
		{
			"buffer":0,
			"byteLength":24,
			"byteOffset":738132
		},
		{
			"buffer":0,
			"byteLength":24,
			"byteOffset":738156
		},
		{
			"buffer":0,
			"byteLength":1936,
			"byteOffset":738180
		},
		{
			"buffer":0,
			"byteLength":24,
			"byteOffset":740116
		},
		{
			"buffer":0,
			"byteLength":24,
			"byteOffset":740140
		},
		{
			"buffer":0,
			"byteLength":1936,
			"byteOffset":740164
		},
		{
			"buffer":0,
			"byteLength":24,
			"byteOffset":742100
		},
		{
			"buffer":0,
			"byteLength":24,
			"byteOffset":742124
		},
		{
			"buffer":0,
			"byteLength":1936,
			"byteOffset":742148
		},
		{
			"buffer":0,
			"byteLength":24,
			"byteOffset":744084
		},
		{
			"buffer":0,
			"byteLength":24,
			"byteOffset":744108
		},
		{
			"buffer":0,
			"byteLength":1936,
			"byteOffset":744132
		},
		{
			"buffer":0,
			"byteLength":24,
			"byteOffset":746068
		},
		{
			"buffer":0,
			"byteLength":24,
			"byteOffset":746092
		},
		{
			"buffer":0,
			"byteLength":1936,
			"byteOffset":746116
		},
		{
			"buffer":0,
			"byteLength":24,
			"byteOffset":748052
		},
		{
			"buffer":0,
			"byteLength":24,
			"byteOffset":748076
		},
		{
			"buffer":0,
			"byteLength":1936,
			"byteOffset":748100
		},
		{
			"buffer":0,
			"byteLength":24,
			"byteOffset":750036
		},
		{
			"buffer":0,
			"byteLength":24,
			"byteOffset":750060
		},
		{
			"buffer":0,
			"byteLength":1936,
			"byteOffset":750084
		},
		{
			"buffer":0,
			"byteLength":24,
			"byteOffset":752020
		},
		{
			"buffer":0,
			"byteLength":24,
			"byteOffset":752044
		},
		{
			"buffer":0,
			"byteLength":1936,
			"byteOffset":752068
		},
		{
			"buffer":0,
			"byteLength":24,
			"byteOffset":754004
		},
		{
			"buffer":0,
			"byteLength":24,
			"byteOffset":754028
		},
		{
			"buffer":0,
			"byteLength":1936,
			"byteOffset":754052
		},
		{
			"buffer":0,
			"byteLength":24,
			"byteOffset":755988
		},
		{
			"buffer":0,
			"byteLength":24,
			"byteOffset":756012
		},
		{
			"buffer":0,
			"byteLength":1936,
			"byteOffset":756036
		},
		{
			"buffer":0,
			"byteLength":24,
			"byteOffset":757972
		},
		{
			"buffer":0,
			"byteLength":24,
			"byteOffset":757996
		},
		{
			"buffer":0,
			"byteLength":1936,
			"byteOffset":758020
		},
		{
			"buffer":0,
			"byteLength":24,
			"byteOffset":759956
		},
		{
			"buffer":0,
			"byteLength":24,
			"byteOffset":759980
		},
		{
			"buffer":0,
			"byteLength":1936,
			"byteOffset":760004
		},
		{
			"buffer":0,
			"byteLength":24,
			"byteOffset":761940
		},
		{
			"buffer":0,
			"byteLength":24,
			"byteOffset":761964
		},
		{
			"buffer":0,
			"byteLength":1936,
			"byteOffset":761988
		},
		{
			"buffer":0,
			"byteLength":24,
			"byteOffset":763924
		},
		{
			"buffer":0,
			"byteLength":24,
			"byteOffset":763948
		},
		{
			"buffer":0,
			"byteLength":1936,
			"byteOffset":763972
		},
		{
			"buffer":0,
			"byteLength":24,
			"byteOffset":765908
		},
		{
			"buffer":0,
			"byteLength":24,
			"byteOffset":765932
		},
		{
			"buffer":0,
			"byteLength":1936,
			"byteOffset":765956
		},
		{
			"buffer":0,
			"byteLength":24,
			"byteOffset":767892
		},
		{
			"buffer":0,
			"byteLength":24,
			"byteOffset":767916
		},
		{
			"buffer":0,
			"byteLength":1936,
			"byteOffset":767940
		},
		{
			"buffer":0,
			"byteLength":24,
			"byteOffset":769876
		},
		{
			"buffer":0,
			"byteLength":24,
			"byteOffset":769900
		},
		{
			"buffer":0,
			"byteLength":1936,
			"byteOffset":769924
		},
		{
			"buffer":0,
			"byteLength":24,
			"byteOffset":771860
		},
		{
			"buffer":0,
			"byteLength":24,
			"byteOffset":771884
		},
		{
			"buffer":0,
			"byteLength":1936,
			"byteOffset":771908
		},
		{
			"buffer":0,
			"byteLength":24,
			"byteOffset":773844
		},
		{
			"buffer":0,
			"byteLength":24,
			"byteOffset":773868
		},
		{
			"buffer":0,
			"byteLength":1936,
			"byteOffset":773892
		},
		{
			"buffer":0,
			"byteLength":24,
			"byteOffset":775828
		},
		{
			"buffer":0,
			"byteLength":24,
			"byteOffset":775852
		},
		{
			"buffer":0,
			"byteLength":1936,
			"byteOffset":775876
		},
		{
			"buffer":0,
			"byteLength":24,
			"byteOffset":777812
		},
		{
			"buffer":0,
			"byteLength":24,
			"byteOffset":777836
		},
		{
			"buffer":0,
			"byteLength":1936,
			"byteOffset":777860
		},
		{
			"buffer":0,
			"byteLength":24,
			"byteOffset":779796
		},
		{
			"buffer":0,
			"byteLength":24,
			"byteOffset":779820
		},
		{
			"buffer":0,
			"byteLength":1936,
			"byteOffset":779844
		},
		{
			"buffer":0,
			"byteLength":24,
			"byteOffset":781780
		},
		{
			"buffer":0,
			"byteLength":24,
			"byteOffset":781804
		},
		{
			"buffer":0,
			"byteLength":1936,
			"byteOffset":781828
		},
		{
			"buffer":0,
			"byteLength":24,
			"byteOffset":783764
		},
		{
			"buffer":0,
			"byteLength":24,
			"byteOffset":783788
		},
		{
			"buffer":0,
			"byteLength":1936,
			"byteOffset":783812
		},
		{
			"buffer":0,
			"byteLength":24,
			"byteOffset":785748
		},
		{
			"buffer":0,
			"byteLength":24,
			"byteOffset":785772
		},
		{
			"buffer":0,
			"byteLength":32,
			"byteOffset":785796
		},
		{
			"buffer":0,
			"byteLength":24,
			"byteOffset":785828
		}
	],
	"samplers":[
		{
			"magFilter":9729,
			"minFilter":9987
		}
	],
	"buffers":[
		{
			"byteLength":785852,
			"uri":"model_idle.bin"
		}
	]
}
